<?xml version="1.0" encoding="UTF-8" standalone="no"?>
<svg width="750px" height="750px" viewBox="0 0 750 750" version="1.1" xmlns="http://www.w3.org/2000/svg" xmlns:xlink="http://www.w3.org/1999/xlink">
    <!-- Generator: Sketch 48.1 (47250) - http://www.bohemiancoding.com/sketch -->
    <title>Artboard 14 Copy 7</title>
    <desc>Created with Sketch.</desc>
    <defs>
        <path d="M391.5,30.2946429 C590.98823,30.2946429 752.705357,192.01177 752.705357,391.5 C752.705357,590.98823 590.98823,752.705357 391.5,752.705357 C192.01177,752.705357 30.2946429,590.98823 30.2946429,391.5 C30.2946429,192.01177 192.01177,30.2946429 391.5,30.2946429 Z" id="path-1"></path>
        <linearGradient x1="50%" y1="0%" x2="50%" y2="100%" id="linearGradient-3">
            <stop stop-color="#9C4939" offset="0%"></stop>
            <stop stop-color="#381A14" offset="100%"></stop>
        </linearGradient>
        <path d="M559.285765,475.392857 L497.764308,475.392857 L497.764308,248.882143 C497.764308,242.117694 502.568114,236.476738 508.949916,235.180761 L508.949916,27.964062 C508.949916,20.6620277 513.623481,14.466708 520.135728,12.1606611 L520.135728,8.38950943 C520.135728,3.75593914 523.891687,0.000223714285 528.525036,0.000223714285 L539.710849,0.000223714285 C544.343994,0.000223714285 548.099952,3.75593914 548.099952,8.38950943 L548.099952,12.1606611 C554.612608,14.466708 559.285765,20.6620277 559.285765,27.964062 L559.285765,72.7071429 L637.585633,72.7071429 L637.585633,27.964062 C637.585633,20.6620277 642.259198,14.466708 648.771445,12.1606611 L648.771445,8.38950943 C648.771445,3.75593914 652.527404,0.000223714285 657.160753,0.000223714285 L668.346566,0.000223714285 C672.979711,0.000223714285 676.73567,3.75593914 676.73567,8.38950943 L676.73567,12.1606611 C683.248121,14.466708 687.921482,20.6620277 687.921482,27.964062 L687.921482,620.807367 C687.921482,630.073836 680.40936,637.585938 671.14307,637.585938 L665.550062,637.585938 L665.550062,651.567857 C665.550062,659.290027 659.29013,665.549776 651.567949,665.549776 C650.610128,665.549776 649.67517,665.452461 648.771445,665.269239 C647.867925,665.452461 646.932763,665.549776 645.975145,665.549776 C645.01712,665.549776 644.082162,665.452461 643.178641,665.269239 C642.274917,665.452461 641.340163,665.549776 640.382137,665.549776 C632.660161,665.549776 626.400025,659.290027 626.400025,651.567857 L626.400025,419.464509 L559.285765,419.464509 L559.285765,475.392857 Z M559.285765,531.321205 L559.285765,620.807367 C559.285765,630.073836 551.773643,637.585938 542.507353,637.585938 L536.914344,637.585938 L536.914344,651.567857 C536.914344,659.290027 530.654413,665.549776 522.932232,665.549776 C521.974411,665.549776 521.039453,665.452461 520.135728,665.269239 C519.232004,665.452461 518.297046,665.549776 517.339428,665.549776 C516.381403,665.549776 515.446445,665.452461 514.542924,665.269239 C513.639404,665.452461 512.704446,665.549776 511.74642,665.549776 C504.024443,665.549776 497.764308,659.290027 497.764308,651.567857 L497.764308,531.321205 L559.285765,531.321205 Z M559.285765,380.314062 L626.400025,380.314062 L626.400025,268.457367 L559.285765,268.457367 L559.285765,380.314062 Z M559.285765,111.856919 L559.285765,229.306919 L637.585633,229.306919 L637.585633,111.856919 L559.285765,111.856919 Z" id="path-4"></path>
    </defs>
    <g id="Page-1" stroke="none" stroke-width="1" fill="none" fill-rule="evenodd">
        <g id="Artboard-14-Copy-7">
            <g id="Group-2-Copy" transform="translate(-17.000000, -17.000000)">
                <g id="#CIRCLE">
                    <g id="Circle">
                        <mask id="mask-2" fill="white">
                            <use xlink:href="#path-1"></use>
                        </mask>
                        <use id="Circle-Copy" fill="#423748" xlink:href="#path-1"></use>
                        <g id="Group" mask="url(#mask-2)">
                            <g transform="translate(-67.114286, 156.600000)">
                                <polygon id="Bridge" fill="#DB553C" points="79.0860873 475.392835 960.399254 475.392835 960.399254 531.321518 79.0860873 531.321518"></polygon>
                                <polygon id="Bridge---shadow" fill="#9B4837" points="123.649257 475.392801 960.758629 475.392801 960.758629 492.171568 123.649257 492.171568"></polygon>
                                <path d="M525.751443,23.3631428 L536.818961,32.5594778 C536.832971,31.3474945 536.846514,30.1297729 536.860057,28.9790985 C563.794021,51.5969483 626.079689,93.9719687 773.354869,178.122813 C855.418605,225.012343 937.362787,269.643712 981.864492,293.65113 L984.364829,282.336165 C871.608684,221.473642 537.772582,38.5523473 526.022305,0.0189486 L526.022305,0.0132103286 C526.019503,0.0117002571 525.9219,8.45601969 525.751443,23.3631428 Z" id="Right-rope-1" fill="#DB553C"></path>
                                <g id="Combined-shape-460" fill="none">
                                    <use fill="#B82849" xlink:href="#path-4"></use>
                                    <use fill="url(#linearGradient-3)" xlink:href="#path-4"></use>
                                </g>
                                <path d="M542.507313,475.392857 L492.171546,475.392857 L492.171546,248.882143 C492.171546,242.117694 496.975287,236.476738 503.357168,235.180761 L503.357168,27.964062 C503.357168,20.6620277 508.030694,14.466708 514.542977,12.1606611 L514.542977,8.38950943 C514.542977,3.75593914 518.298998,0.000223714285 522.932053,0.000223714285 C527.565671,0.000223714285 531.321691,3.75593914 531.321691,8.38950943 L531.321691,12.1606611 C537.833788,14.466708 542.507313,20.6620277 542.507313,27.964062 L542.507313,78.3004474 L631.993039,78.3004474 L631.993039,27.964062 C631.993039,20.6620277 636.66619,14.466708 643.178661,12.1606611 L643.178661,8.38950943 C643.178661,3.75593914 646.934681,0.000223714285 651.567924,0.000223714285 C656.201355,0.000223714285 659.957,3.75593914 659.957,8.38950943 L659.957,12.1606611 C666.469659,14.466708 671.142997,20.6620277 671.142997,27.964062 L671.142997,620.807367 C671.142997,630.073836 663.630956,637.585938 654.364283,637.585938 L648.771378,637.585938 L648.771378,651.567857 C648.771378,659.290027 642.511469,665.549776 634.789398,665.549776 C627.067138,665.549776 620.80723,659.290027 620.80723,651.567857 L620.80723,430.649776 L542.507313,430.649776 L542.507313,475.392857 Z M542.507313,531.321205 L542.507313,620.807367 C542.507313,630.073836 534.995273,637.585938 525.728599,637.585938 L520.135695,637.585938 L520.135695,651.567857 C520.135695,659.290027 513.875599,665.549776 506.153714,665.549776 C498.431455,665.549776 492.171546,659.290027 492.171546,651.567857 L492.171546,531.321205 L542.507313,531.321205 Z M542.507313,385.907367 L620.80723,385.907367 L620.80723,279.643305 L542.507313,279.643305 L542.507313,385.907367 Z M542.507313,123.042857 L542.507313,234.900224 L631.993039,234.900224 L631.993039,123.042857 L542.507313,123.042857 Z" id="Combined-shape-456" fill="#DB553C"></path>
                                <path d="M469.800224,55.9286162 L475.392768,55.9286162 L475.392768,475.392835 L469.800224,475.392835 L469.800224,55.9286162 Z M436.242991,475.392835 L436.242991,72.7073218 L441.835781,72.7073218 L441.835781,475.392835 L436.242991,475.392835 Z M402.686005,475.392835 L402.686005,95.0785015 L408.278549,95.0785015 L408.278549,475.392835 L402.686005,475.392835 Z M369.128527,475.392835 L369.128527,117.450109 L374.721563,117.450109 L374.721563,475.392835 L369.128527,475.392835 Z M335.571294,475.392835 L335.571294,134.228815 L341.16433,134.228815 L341.16433,475.392835 L335.571294,475.392835 Z M302.014308,475.392835 L302.014308,151.007093 L307.607344,151.007093 L307.607344,475.392835 L302.014308,475.392835 Z M268.457076,475.392835 L268.457076,173.3787 L274.050112,173.3787 L274.050112,475.392835 L268.457076,475.392835 Z M234.900179,475.39288 L234.900179,190.157023 L240.492969,190.157023 L240.492969,475.39288 L234.900179,475.39288 Z" id="Combined-shape-40" fill="#DF6751"></path>
                                <path d="M201.342991,475.243587 L201.342991,210.460307 L206.935781,210.460307 L206.935781,475.243587 L201.342991,475.243587 Z M167.786005,475.243587 L167.786005,225.170333 L173.378549,225.170333 L173.378549,475.243587 L167.786005,475.243587 Z M134.228527,475.284902 L134.228527,245.210128 L139.821563,245.210128 L139.821563,475.284902 L134.228527,475.284902 Z M100.671294,475.339734 L100.671294,262.739296 L106.26433,262.739296 L106.26433,475.339734 L100.671294,475.339734 Z M67.1143081,475.392852 L67.1143081,279.409706 L72.7073442,279.409706 L72.7073442,475.392852 L67.1143081,475.392852 Z M33.5570757,475.392852 L33.5570757,292.925892 L39.1501119,292.925892 L39.1501119,475.392852 L33.5570757,475.392852 Z M0.000178971428,475.39288 L0.000178971428,303.0628 L5.592969,303.0628 L5.592969,475.39288 L0.000178971428,475.39288 Z" id="Combined-shape-40-Copy" fill="#D4644F"></path>
                                <path d="M519.921368,20.9184183 L508.919502,36.0457098 C508.908926,35.1063699 508.89835,34.1502682 508.888115,33.2492085 C486.45281,51.1890836 364.926893,122.619457 337.739854,137.509168 C310.552816,152.398879 60.78595,292.753724 60.78595,292.753724 L60.78595,280.096464 C60.78595,280.096464 511.203597,33.8852506 519.745327,5.60652049 C519.747033,5.60153726 519.81049,11.1288517 519.921368,20.9184183 Z" id="Left-rope-2" fill="#DB553C"></path>
                                <path d="M646.9137,23.4537471 L635.835441,32.6854178 C635.821431,31.4689042 635.807421,30.2463504 635.794345,29.0911458 C608.834695,51.7965798 414.081755,164.329522 396.68058,174.617656 C379.279405,184.905789 78.9654576,349.463159 78.9654576,349.463159 L78.9654576,337.893413 C78.9654576,337.893413 634.880419,38.7015423 646.641903,0.0189486 C646.644705,0.0120022714 646.9137,23.4537471 646.9137,23.4537471 Z" id="Left-rope-1" fill="#DB553C"></path>
                                <path d="M654.403718,21.0098363 L665.362438,36.2275755 C665.372927,35.2823715 665.383755,34.3206573 665.393906,33.4142062 C687.740735,51.4613663 734.442943,82.9651867 833.759323,140.837265 C893.301238,175.532582 952.761945,208.570467 985.441851,226.554797 L987.122862,214.671184 C902.639514,168.127796 663.087591,34.0542024 654.578993,5.60658761 L654.578993,5.60268939 C654.577301,5.60177216 654.514364,11.1620118 654.403718,21.0098363 Z" id="Right-rope-2" fill="#DB553C"></path>
                                <path d="M934.00712,475.392835 L934.00712,190.156978 L939.599911,190.156978 L939.599911,475.392835 L934.00712,475.392835 Z M900.450134,475.392835 L900.450134,173.3787 L906.042924,173.3787 L906.042924,475.392835 L900.450134,475.392835 Z M866.892902,475.392835 L866.892902,151.007093 L872.485692,151.007093 L872.485692,475.392835 L866.892902,475.392835 Z M833.335916,475.392835 L833.335916,134.228815 L838.928706,134.228815 L838.928706,475.392835 L833.335916,475.392835 Z M799.778437,475.392835 L799.778437,117.450109 L805.371473,117.450109 L805.371473,475.392835 L799.778437,475.392835 Z M766.221451,475.392835 L766.221451,95.0785015 L771.814487,95.0785015 L771.814487,475.392835 L766.221451,475.392835 Z M732.664219,475.392835 L732.664219,72.7073218 L738.257255,72.7073218 L738.257255,475.392835 L732.664219,475.392835 Z M699.107232,55.9286162 L704.700268,55.9286162 L704.700268,475.392835 L699.107232,475.392835 L699.107232,55.9286162 Z" id="Combined-shape-44" fill="#DF6851"></path>
                            </g>
                        </g>
                    </g>
                </g>
                <circle id="Oval" cx="391" cy="391" r="361"></circle>
            </g>
        </g>
    </g>
</svg>