
<svg width="47px" height="38px" viewBox="0 0 47 38" version="1.1" xmlns="http://www.w3.org/2000/svg" xmlns:xlink="http://www.w3.org/1999/xlink">
    <defs></defs>
    <g id="Page-1" stroke="none" stroke-width="1" fill="none" fill-rule="evenodd">
        <g id="icon" transform="translate(-597.000000, -120.000000)" stroke="#8662D8" stroke-width="2">
            <g id="Row1" transform="translate(155.000000, 114.000000)">
                <path d="M476.972069,27.7524045 L476.972069,24.9381706 C476.972069,23.8368981 477.869417,22.9787564 478.96982,23.0738439 C478.96982,23.0738439 487.083789,22.9441407 487.083789,28.5378907 C487.083789,28.5378907 487.083789,32.9162114 487.083789,37.6492184 C487.083789,42.8882821 478.957755,42.7680466 478.957755,42.7680466 C477.861091,42.8344508 476.972069,41.9857395 476.972069,40.8942519 L476.97207,37.1418749 C478.361887,36.0490266 479.254485,34.3523219 479.254485,32.4471397 C479.254485,30.5419575 478.361887,28.8452528 476.972069,27.7524045 Z M454.083789,37.1418749 L454.083789,40.8942519 C454.083789,41.9857395 453.194767,42.8344508 452.098103,42.7680466 C452.098103,42.7680466 443.972069,42.8882821 443.972069,37.6492184 C443.972069,32.9162114 443.972069,28.5378907 443.972069,28.5378907 C443.972069,22.9441407 452.086038,23.0738439 452.086038,23.0738439 C453.186441,22.9787564 454.083789,23.8368981 454.083789,24.9381706 L454.083789,27.7524045 C452.693971,28.8452528 451.801373,30.5419575 451.801373,32.4471397 C451.801373,34.3523219 452.693971,36.0490266 454.083789,37.1418749 Z M482,20.5 C482,11.3873016 482,7.46191406 465.5,7.46191406 C449,7.46191406 449,11.3873016 449,20.5" id="Path-7"></path>
            </g>
        </g>
    </g>
</svg>