
<svg width="48px" height="46px" viewBox="0 0 48 46" version="1.1" xmlns="http://www.w3.org/2000/svg" xmlns:xlink="http://www.w3.org/1999/xlink">
    <!-- Generator: Sketch 43.1 (39012) - http://www.bohemiancoding.com/sketch -->
    <desc>Created with Sketch.</desc>
    <defs></defs>
    <g id="Page-1" stroke="none" stroke-width="1" fill="none" fill-rule="evenodd">
        <g id="icon" transform="translate(-420.000000, -198.000000)" stroke="#FE4062" stroke-width="2">
            <g id="Row2" transform="translate(160.000000, 196.000000)">
                <path d="M261,12.0021973 C261,7.02818672 265.027138,3 270.003945,3 L297.996055,3 C302.968688,3 307,7.03072185 307,12.0021973 L307,13.9978027 C307,18.9718133 302.972862,23 297.996055,23 L270.003945,23 C265.031312,23 261,18.9692781 261,13.9978027 L261,12.0021973 Z M295,18 C297.761424,18 300,15.7614237 300,13 C300,10.2385763 297.761424,8 295,8 C292.238576,8 290,10.2385763 290,13 C290,15.7614237 292.238576,18 295,18 Z M307,36.0021973 L307,37.9978027 C307,42.9692781 302.968688,47 297.996055,47 L270.003945,47 C265.027138,47 261,42.9718133 261,37.9978027 L261,36.0021973 C261,31.0307219 265.031312,27 270.003945,27 L297.996055,27 C302.972862,27 307,31.0281867 307,36.0021973 Z M273,42 C275.761424,42 278,39.7614237 278,37 C278,34.2385763 275.761424,32 273,32 C270.238576,32 268,34.2385763 268,37 C268,39.7614237 270.238576,42 273,42 Z" id="Setting"></path>
            </g>
        </g>
    </g>
</svg>