
<svg width="50px" height="50px" viewBox="0 0 50 50" version="1.1" xmlns="http://www.w3.org/2000/svg" xmlns:xlink="http://www.w3.org/1999/xlink">
    <!-- Generator: Sketch 43.1 (39012) - http://www.bohemiancoding.com/sketch -->
    <desc>Created with Sketch.</desc>
    <defs></defs>
    <g id="Page-1" stroke="none" stroke-width="1" fill="none" fill-rule="evenodd">
        <g id="icon" transform="translate(-332.000000, -115.000000)" stroke="#8662D8" stroke-width="2">
            <g id="Row1" transform="translate(155.000000, 114.000000)">
                <path d="M202,46.8695652 C213.525943,46.8695652 222.869565,37.5259426 222.869565,26 C222.869565,14.4740574 213.525943,5.13043478 202,5.13043478 C190.474057,5.13043478 181.130435,14.4740574 181.130435,26 C181.130435,37.5259426 190.474057,46.8695652 202,46.8695652 Z M181.362382,22.878028 C181.876787,19.4487312 183.225578,16.2924466 185.195482,13.6224458 C184.618575,13.0546145 184.26087,12.2647328 184.26087,11.3913043 C184.26087,9.66241296 185.662413,8.26086957 187.391304,8.26086957 C188.264733,8.26086957 189.054615,8.61857517 189.622446,9.19548246 C192.292447,7.2255779 195.448731,5.8767872 198.878028,5.36238181 C198.872419,5.28579848 198.869565,5.20844991 198.869565,5.13043478 C198.869565,3.40154339 200.271109,2 202,2 C203.728891,2 205.130435,3.40154339 205.130435,5.13043478 C205.130435,5.20844991 205.127581,5.28579848 205.121972,5.36238181 C208.551269,5.8767872 211.707553,7.2255779 214.377554,9.19548246 C214.945385,8.61857517 215.735267,8.26086957 216.608696,8.26086957 C218.337587,8.26086957 219.73913,9.66241296 219.73913,11.3913043 C219.73913,12.2647328 219.381425,13.0546145 218.804518,13.6224458 C220.774422,16.2924466 222.123213,19.4487312 222.637618,22.878028 C222.714202,22.8724191 222.79155,22.8695652 222.869565,22.8695652 C224.598457,22.8695652 226,24.2711086 226,26 C226,27.7288914 224.598457,29.1304348 222.869565,29.1304348 C222.79155,29.1304348 222.714202,29.1275809 222.637618,29.121972 C222.123213,32.5512688 220.774422,35.7075534 218.804518,38.3775542 C219.381425,38.9453855 219.73913,39.7352672 219.73913,40.6086957 C219.73913,42.337587 218.337587,43.7391304 216.608696,43.7391304 C215.735267,43.7391304 214.945385,43.3814248 214.377554,42.8045175 C211.707553,44.7744221 208.551269,46.1232128 205.121972,46.6376182 C205.127581,46.7142015 205.130435,46.7915501 205.130435,46.8695652 C205.130435,48.5984566 203.728891,50 202,50 C200.271109,50 198.869565,48.5984566 198.869565,46.8695652 C198.869565,46.7915501 198.872419,46.7142015 198.878028,46.6376182 C195.448731,46.1232128 192.292447,44.7744221 189.622446,42.8045175 C189.054615,43.3814248 188.264733,43.7391304 187.391304,43.7391304 C185.662413,43.7391304 184.26087,42.337587 184.26087,40.6086957 C184.26087,39.7352672 184.618575,38.9453855 185.195482,38.3775542 C183.225578,35.7075534 181.876787,32.5512688 181.362382,29.121972 C181.285798,29.1275809 181.20845,29.1304348 181.130435,29.1304348 C179.401543,29.1304348 178,27.7288914 178,26 C178,24.2711086 179.401543,22.8695652 181.130435,22.8695652 C181.20845,22.8695652 181.285798,22.8724191 181.362382,22.878028 Z M200.062651,23.540912 L187.902183,11.3804442 L200.062651,23.540912 C200.595589,23.1204689 201.268494,22.8695652 202,22.8695652 C203.728891,22.8695652 205.130435,24.2711086 205.130435,26 C205.130435,27.7288914 203.728891,29.1304348 202,29.1304348 C200.271109,29.1304348 198.869565,27.7288914 198.869565,26 C198.869565,25.0026147 199.336007,24.1141727 200.062651,23.540912 Z M202,29.1304348 L202,45.826087 L202,29.1304348 Z M205.130435,26 L222.869565,26 L205.130435,26 Z" id="Settings"></path>
            </g>
        </g>
    </g>
</svg>