
<svg width="38px" height="45px" viewBox="0 0 38 45" version="1.1" xmlns="http://www.w3.org/2000/svg" xmlns:xlink="http://www.w3.org/1999/xlink">
    <!-- Generator: Sketch 43.1 (39012) - http://www.bohemiancoding.com/sketch -->
    <desc>Created with Sketch.</desc>
    <defs></defs>
    <g id="Page-1" stroke="none" stroke-width="1" fill="none" fill-rule="evenodd">
        <g id="icon" transform="translate(-250.000000, -118.000000)" stroke="#FFC754" stroke-width="2">
            <g id="Row1" transform="translate(155.000000, 114.000000)">
                <path d="M104.998608,34 C107.572929,35.9342553 110.7064,37 114,37 C117.2936,37 120.427071,35.9342553 123.001392,34 L124.999205,34 C128.862383,34 132,37.1397407 132,41 L132,45.0037973 C132,46.6612078 130.663214,48 129.005156,48 L98.9948438,48 C97.3407865,48 96,46.6588341 96,45.0037973 L96,41 C96,37.1314273 99.1298107,34 103.000795,34 L104.998608,34 Z M114,30.2011719 C108.450958,30.2011719 103,22.7413643 103,16 C103,9.92486775 107.924868,5 114,5 C120.075132,5 125,9.92486775 125,16 C125,22.7413643 119.549042,30.2011719 114,30.2011719 Z" id="User"></path>
            </g>
        </g>
    </g>
</svg>