
<svg width="48px" height="48px" viewBox="0 0 48 48" version="1.1" xmlns="http://www.w3.org/2000/svg" xmlns:xlink="http://www.w3.org/1999/xlink">
    <!-- Generator: Sketch 43.1 (39012) - http://www.bohemiancoding.com/sketch -->
    <desc>Created with Sketch.</desc>
    <defs></defs>
    <g id="Page-1" stroke="none" stroke-width="1" fill="none" fill-rule="evenodd">
        <g id="icon" transform="translate(-157.000000, -277.000000)" stroke="#FE4062" stroke-width="2">
            <g id="Row3" transform="translate(157.000000, 277.000000)">
                <path d="M34,3 L37.9960546,3 C42.9715741,3 47,7.02849138 47,12.0096708 L47,37.9903292 C47,42.968636 42.9726942,47 37.9960546,47 L10.0039454,47 C5.02842591,47 1,42.9715086 1,37.9903292 L1,12.0096708 C1,7.031364 5.02730575,3 10.0039454,3 L13,3 L14,3 L14,2 L14,1.00446835 C14,0.999073298 13.9990799,1 14,1 C13.9983127,1 14,1.00169648 14,1.00446835 L14,2 L14,3 L15,3 L32,3 L33,3 L33,2 L33,0.998594703 C33,0.997758151 32.997761,1 33,1 C33.0043379,1 33,0.995692192 33,0.998594703 L33,2 L33,3 L34,3 Z M0,15.5609756 L-1,15.5609756 L-1,16.5609756 L-1,18.902439 L-1,19.902439 L0,19.902439 L48,19.902439 L49,19.902439 L49,18.902439 L49,16.5609756 L49,15.5609756 L48,15.5609756 L0,15.5609756 Z M14,30 C15.1045695,30 16,29.1045695 16,28 C16,26.8954305 15.1045695,26 14,26 C12.8954305,26 12,26.8954305 12,28 C12,29.1045695 12.8954305,30 14,30 Z M24,30 C25.1045695,30 26,29.1045695 26,28 C26,26.8954305 25.1045695,26 24,26 C22.8954305,26 22,26.8954305 22,28 C22,29.1045695 22.8954305,30 24,30 Z M34,30 C35.1045695,30 36,29.1045695 36,28 C36,26.8954305 35.1045695,26 34,26 C32.8954305,26 32,26.8954305 32,28 C32,29.1045695 32.8954305,30 34,30 Z M14,40 C15.1045695,40 16,39.1045695 16,38 C16,36.8954305 15.1045695,36 14,36 C12.8954305,36 12,36.8954305 12,38 C12,39.1045695 12.8954305,40 14,40 Z M24,40 C25.1045695,40 26,39.1045695 26,38 C26,36.8954305 25.1045695,36 24,36 C22.8954305,36 22,36.8954305 22,38 C22,39.1045695 22.8954305,40 24,40 Z M34,40 C35.1045695,40 36,39.1045695 36,38 C36,36.8954305 35.1045695,36 34,36 C32.8954305,36 32,36.8954305 32,38 C32,39.1045695 32.8954305,40 34,40 Z" id="Calendar"></path>
            </g>
        </g>
    </g>
</svg>