
<svg width="49px" height="48px" viewBox="0 0 49 48" version="1.1" xmlns="http://www.w3.org/2000/svg" xmlns:xlink="http://www.w3.org/1999/xlink">
    <!-- Generator: Sketch 43.1 (39012) - http://www.bohemiancoding.com/sketch -->
    <desc>Created with Sketch.</desc>
    <defs></defs>
    <g id="Page-1" stroke="none" stroke-width="1" fill="none" fill-rule="evenodd">
        <g id="icon" transform="translate(-155.000000, -116.000000)" stroke="#FE4062" stroke-width="2">
            <g id="Row1" transform="translate(155.000000, 114.000000)">
                <path d="M8.98713322,3 C9.41878089,3 10.0387313,3 10.9951172,3 C13.4013135,3 14.6998112,3.58770011 16.9475564,5.29613657 C17.0962532,5.40927217 17.0962532,5.40927217 17.2463727,5.52344389 C19.601996,7.31278763 21.087871,8 23.6103516,8 L40.9749819,8 C44.8434411,8 47.9824219,11.1368557 47.9824219,14.9984324 C47.9824219,15.7371202 47.9824219,16.5745851 47.9824219,24.8886719 C47.9824219,36.3753073 47.9824219,36.3753073 47.9824219,40.8331907 C47.9824219,41.8271058 47.9824219,41.8271058 47.9824219,42.0080797 C47.9824219,45.8679947 44.8435832,49 40.975325,49 L8.98951876,49 C5.12165611,49 1.98242188,45.8591992 1.98242188,41.9927859 C1.98242188,41.5701036 1.98242188,41.5701036 1.98242188,38.5867236 C1.98242188,33.8880129 1.98242188,33.8880129 1.98242188,24.8886719 C1.98242188,16.1659215 1.98242188,16.1659215 1.98242188,12.2969826 C1.98242188,10.1433749 1.98242188,10.1433749 1.98242188,9.99728335 C1.98242188,6.13556239 5.12280336,3 8.98713322,3 Z M47.7237399,22.3345989 C46.7963836,17.6928794 42.1843226,14 37.3585166,14 L11.2927272,14 C6.36640169,14 2.35912711,17.9672039 2.29532697,22.8814208 L2.29455441,22.8814208 C2.29455441,22.8814665 2.29455441,22.8814665 2.29455441,22.8815407 C2.29455441,22.8847137 2.29455441,22.8847137 2.29455441,22.8966018 C2.29455441,22.9939556 2.29455441,22.9939556 2.29455441,23.3303559 C2.29455441,25.0518654 2.29455441,25.0518654 2.29455441,30.7359619 C2.29455441,36.6107181 2.29455441,36.6107181 2.29455441,38.9042068 C2.29455441,39.588759 2.29455441,39.588759 2.29455442,39.8619114 C2.29455442,39.9470626 2.29455442,39.9470626 2.29455442,39.9807889 C2.29455442,39.9912239 2.29455442,39.9912239 2.29455442,39.9952308 C2.29455442,39.9964307 2.29455442,39.9964307 2.29455442,39.9968271 L2.29455442,39.9969223 C4.29455442,39.9968861 4.29455442,39.9968861 4.29455442,39.9968165 C4.29455442,39.9967344 4.29455442,39.9967344 4.29455442,39.9967071 L3.29455442,39.9967071 L2.29455442,39.9967071 C2.29455442,44.9674399 6.32150928,49 11.288132,49 L39.3009768,49 C44.2657538,49 48.2945544,44.9737629 48.2945544,40.0092981 C48.2945544,39.9786301 48.2945544,39.9786301 48.2945544,39.5431695 C48.2945544,37.6418774 48.2945544,37.6418774 48.2945544,30.7359619 C48.2945544,26.8765889 48.2009336,24.5475441 48.0391161,23.3932142 C47.9781815,22.9585357 47.9067209,22.6680014 47.7888069,22.4436989 C47.7689071,22.4058442 47.7471604,22.369446 47.7237399,22.3345989 Z" id="Folder"></path>
            </g>
        </g>
    </g>
</svg>